
<svg viewBox="0 0 262 61" fill="none" xmlns="http://www.w3.org/2000/svg">
<path d="M54.7251 3.1H10.6083C9.76391 3.1 8.92484 3.23578 8.12373 3.50176L7.47444 3.71752C5.69364 4.309 4.26471 5.65161 3.56751 7.38792C3.26604 8.13905 3.11111 8.94071 3.11111 9.7495V39.6716C3.11111 40.5988 3.28876 41.5171 3.63409 42.3779L3.8696 42.9648C4.38293 44.2435 5.34956 45.2904 6.58591 45.9064C7.36991 46.2966 8.23387 46.5 9.11027 46.5H12.4444V29.45H23.3333V49.6H8.84302C8.13556 49.6 7.43058 49.5135 6.74427 49.3424C3.5644 48.5503 1.10631 46.0359 0.395422 42.8476L0.234579 42.1271C0.0787123 41.4278 0 40.7135 0 39.9974V9.55544C0 8.87065 0.075288 8.18772 0.22431 7.51905C1.03351 3.89081 3.91533 1.07973 7.57307 0.35092L8.30698 0.2046C8.98955 0.06851 9.68396 0 10.3799 0H55.1578C55.7184 0 56.2778 0.0461912 56.8307 0.137951L58.4285 0.40331C62.4129 1.06516 65.3333 4.49996 65.3333 8.525V41.075V42.5295C65.3333 45.774 63.1173 48.6021 59.9586 49.3889C59.3958 49.529 58.8177 49.6 58.2375 49.6H43.5556V18.6H54.4444V46.5H58.1498C58.782 46.5 59.4054 46.3534 59.971 46.0716C61.3508 45.3843 62.2222 43.9791 62.2222 42.4421V41.075V9.7495C62.2222 8.94071 62.0673 8.13905 61.7658 7.38792C61.0686 5.65161 59.6397 4.309 57.8589 3.71752L57.2096 3.50176C56.4085 3.23578 55.5694 3.1 54.7251 3.1Z" fill="white"/>
<path d="M38.8889 23.25H28V60.45L38.8889 46.5V23.25Z" fill="#109CEA"/>
<path d="M80 10H89.6542C94.0531 10 97.243 10.6087 99.2232 11.8263C101.218 13.0301 102.215 14.9521 102.215 17.5923C102.215 19.3844 101.777 20.8549 100.899 22.0041C100.037 23.1533 98.8839 23.8441 97.4409 24.0765V24.2818C99.4073 24.7059 100.822 25.4992 101.685 26.662C102.561 27.8248 103 29.3707 103 31.2996C103 34.0354 101.974 36.1696 99.9234 37.7019C97.8864 39.2339 95.1141 40 91.606 40H80V10ZM86.5773 21.8809H90.3966C92.1789 21.8809 93.4661 21.6142 94.2583 21.0808C95.0646 20.5472 95.4677 19.6648 95.4677 18.4336C95.4677 17.2845 95.0291 16.4637 94.1524 15.9712C93.2893 15.4651 91.9172 15.212 90.0359 15.212H86.5773V21.8809ZM86.5773 26.9287V34.7469H90.8636C92.6739 34.7469 94.0107 34.4117 94.8737 33.7416C95.7365 33.0711 96.168 32.0451 96.168 30.6634C96.168 28.1736 94.3292 26.9287 90.6513 26.9287H86.5773Z" fill="#27A9E1"/>
<path d="M124.238 39.5956L123.404 36.7055H123.078C122.414 37.7566 121.471 38.5717 120.25 39.1512C119.029 39.7169 117.639 40 116.078 40C113.406 40 111.392 39.2925 110.035 37.8776C108.678 36.4495 108 34.4016 108 31.7338V17H114.206V30.1975C114.206 31.828 114.498 33.0542 115.081 33.8759C115.665 34.6844 116.594 35.0887 117.869 35.0887C119.606 35.0887 120.86 34.5159 121.634 33.3706C122.407 32.212 122.794 30.2988 122.794 27.6309V17H129V39.5956H124.238Z" fill="#27A9E1"/>
<path d="M152 40H133V36.2969L144.146 21.7933H133.667V17H151.613V21.0735L140.768 35.2066H152V40Z" fill="#27A9E1"/>
<path d="M172 40H153V36.2969L164.146 21.7933H153.667V17H171.613V21.0735L160.768 35.2066H172V40Z" fill="#27A9E1"/>
<path d="M189.163 14.3213C186.755 14.3213 184.889 15.2288 183.568 17.0439C182.247 18.8451 181.586 21.3615 181.586 24.5929C181.586 31.3166 184.112 34.6786 189.163 34.6786C191.283 34.6786 193.85 34.149 196.864 33.0904V38.453C194.387 39.4843 191.62 40 188.565 40C184.174 40 180.815 38.673 178.489 36.0193C176.163 33.3516 175 29.5292 175 24.5516C175 21.4164 175.571 18.6733 176.713 16.322C177.856 13.9569 179.494 12.1488 181.627 10.8975C183.774 9.63251 186.286 9 189.163 9C192.095 9 195.04 9.70812 198 11.1244L195.935 16.322C194.807 15.7857 193.671 15.3182 192.529 14.9194C191.386 14.5207 190.264 14.3213 189.163 14.3213Z" fill="white"/>
<path d="M217.513 39.5864L216.271 36.4445H216.102C215.021 37.781 213.905 38.7114 212.753 39.235C211.616 39.745 210.127 40 208.288 40C206.027 40 204.244 39.3659 202.938 38.0982C201.646 36.83 201 35.0249 201 32.6821C201 30.2289 201.871 28.4238 203.612 27.2661C205.367 26.0947 208.007 25.447 211.532 25.3229L215.618 25.1988V24.186C215.618 21.8432 214.396 20.6718 211.953 20.6718C210.071 20.6718 207.86 21.23 205.318 22.3464L203.191 18.0879C205.901 16.696 208.906 16 212.206 16C215.365 16 217.787 16.6753 219.472 18.0258C221.157 19.3764 222 21.4296 222 24.186V39.5864H217.513ZM215.618 28.8784L213.132 28.9611C211.265 29.0162 209.875 29.3471 208.962 29.9534C208.049 30.5598 207.593 31.483 207.593 32.7235C207.593 34.5013 208.632 35.39 210.71 35.39C212.199 35.39 213.385 34.9699 214.27 34.129C215.168 33.2885 215.618 32.1721 215.618 30.7803V28.8784Z" fill="white"/>
<path d="M244 32.7109C244 35.0852 243.151 36.8937 241.453 38.1363C239.769 39.3785 237.243 40 233.875 40C232.149 40 230.677 39.8826 229.46 39.6477C228.243 39.4268 227.104 39.0957 226.042 38.654V33.4355C227.245 33.9877 228.597 34.4503 230.097 34.8229C231.611 35.1957 232.941 35.382 234.087 35.382C236.437 35.382 237.611 34.7195 237.611 33.3944C237.611 32.8972 237.455 32.4969 237.144 32.1932C236.832 31.8758 236.295 31.5235 235.531 31.1372C234.767 30.7366 233.748 30.2744 232.474 29.7498C230.649 29.0041 229.304 28.3141 228.441 27.679C227.592 27.0438 226.969 26.3193 226.573 25.5047C226.191 24.6764 226 23.6619 226 22.4607C226 20.4039 226.814 18.8162 228.441 17.698C230.083 16.566 232.403 16 235.403 16C238.262 16 241.043 16.6074 243.746 17.8222L241.793 22.3779C240.604 21.881 239.493 21.4736 238.46 21.1562C237.427 20.8388 236.373 20.6799 235.297 20.6799C233.387 20.6799 232.432 21.1836 232.432 22.1916C232.432 22.7576 232.736 23.2476 233.344 23.6619C233.967 24.0759 235.318 24.6901 237.399 25.5047C239.253 26.2364 240.611 26.9199 241.474 27.5547C242.337 28.1898 242.974 28.9215 243.385 29.7498C243.795 30.5781 244 31.5649 244 32.7109Z" fill="white"/>
<path d="M258.041 35.0552C259.141 35.0552 260.46 34.8177 262 34.3429V38.962C260.433 39.6538 258.509 40 256.227 40C253.711 40 251.876 39.3758 250.722 38.1279C249.581 36.8661 249.01 34.9805 249.01 32.4708V21.5027H246V18.8779L249.464 16.8023L251.278 12H255.299V16.843H261.753V21.5027H255.299V32.4708C255.299 33.3526 255.546 34.0037 256.041 34.4243C256.55 34.8449 257.216 35.0552 258.041 35.0552Z" fill="white"/>
</svg>
